<svg viewBox="0 0 395 462" xmlns="http://www.w3.org/2000/svg" fill-rule="evenodd" clip-rule="evenodd" stroke-linecap="round" stroke-linejoin="round" stroke-miterlimit="1.5"><path d="M223.6 392.2l11.2 5c29.9 12.2 52.9 18.4 69 18.4 5.1 0 11.8-.9 20-2.5l-20.3 47.2c-5.5 1-10.5 1.4-15.1 1.4-18.1 0-43.1-7.7-75-23.1-27.5-13.3-49-19.9-64.8-19.9a55.9 55.9 0 00-39.3 13.6L93.1 409a77.5 77.5 0 0142.3-23.1A187.5 187.5 0 0157.3 339a182 182 0 01-44.7-69.5 229.1 229.1 0 01-12.6-74c0-54 17.9-100.2 53.6-138.3C89.3 19 136.8 0 196 0s107.3 18.6 144 55.8c36.5 37.1 54.9 84 54.9 140.6 0 30-5.8 58.6-17.3 85.8a184 184 0 01-59.4 73.2 176 176 0 01-94.7 36.8zm92-124c11-21.6 16.5-45.6 16.5-72 0-40.7-13-75.1-38.9-103.2a127.2 127.2 0 00-97.6-42.2c-39 0-70.9 13.8-95.6 41.5-24.7 27.6-37.1 62-37.1 103.3 0 27 5.1 51.2 15.3 72.6h237.4z" fill-rule="nonzero"/><circle cx="89.9" cy="238.2" r="14"/><circle cx="86.5" cy="190.3" r="14"/><circle cx="99.2" cy="144.8" r="14"/><circle cx="300.8" cy="238.8" r="14" fill="#d62330"/><circle cx="307.2" cy="189.9" r="14" fill="#d62330"/><circle cx="295.2" cy="144.5" r="14"/><circle cx="264.7" cy="106.8" r="14"/><circle cx="222.6" cy="87" r="14"/><circle cx="172.7" cy="87" r="14"/><circle cx="128.6" cy="106.9" r="14"/><path d="M198.3 196.2l119.1 119" fill="none" stroke="#d62330" stroke-width="43.8"/><circle cx="198.9" cy="196.4" r="16.6"/></svg>