<svg viewBox="0 0 2232 462" xmlns="http://www.w3.org/2000/svg" fill-rule="evenodd" clip-rule="evenodd" stroke-linecap="round" stroke-linejoin="round" stroke-miterlimit="1.5"><path d="M126 340.3V53.8H47.3v97.5H0V6h309.5v145.3h-47.2V53.8h-78.6v286.5h49.8v47.8H77.2v-47.8H126zM332.5 195.3c0-55.5 18.2-102 54.4-139.3 36.3-37.3 83.5-56 141.8-56 58.7 0 106.6 18.7 143.6 56 37 37.4 55.5 84.2 55.5 140.4 0 57.3-18.8 104.6-56.5 141.8-37.6 37.3-85.4 56-143.5 56-37 0-71-8.9-102-26.6a169.7 169.7 0 01-70-73.9 220.1 220.1 0 01-23.3-98.4zm63 .3c0 41.9 12.2 77 36.7 105.4 24.6 28.4 56.8 42.6 96.7 42.6 39.6 0 72-14.5 97.5-43.5s38.2-63.7 38.2-104c0-40.6-13-75-38.9-103.1a127.2 127.2 0 00-97.6-42.2c-39 0-70.9 13.8-95.6 41.5-24.7 27.6-37 62-37 103.3zM812.3 340.3V53.8h-52.5V6H915c32.4 0 58.2 2.6 77.2 7.6a86 86 0 0147.2 31.9 96.4 96.4 0 0118.7 60.5c0 50.5-26.2 82.3-78.7 95.3l67.5 139h46.7v47.8h-82.8l-87-178.5H870v130.7h48.9v47.8h-159v-47.8h52.4zM870 161.8h45c21.8 0 37.9-1.4 48.2-4.3a46.6 46.6 0 0025.4-17.3 56.6 56.6 0 0010-35 50 50 0 00-10.1-31.6c-6.7-8.6-15-14-24.7-16.3-9.8-2.3-24.8-3.5-45-3.5H870v108zM1341.2 392.2l11.3 5c29.8 12.2 52.8 18.4 69 18.4 5 0 11.7-.9 20-2.5l-20.3 47.2c-5.5 1-10.6 1.4-15.2 1.4-18 0-43-7.7-75-23.1-27.4-13.3-49-19.9-64.8-19.9a55.9 55.9 0 00-39.2 13.6l-16.2-23.3a77.5 77.5 0 0142.3-23.1 187.5 187.5 0 01-78.2-46.8 182 182 0 01-44.6-69.5 229.1 229.1 0 01-12.6-74c0-54 17.8-100.2 53.5-138.3C1207 19 1254.4 0 1313.8 0c59.3 0 107.3 18.6 143.9 55.8 36.6 37.1 55 84 55 140.6 0 30-5.9 58.6-17.4 85.8a184 184 0 01-59.3 73.2 176 176 0 01-94.8 36.8zm-160.6-196.6c0 41.9 12.2 77 36.8 105.4 24.5 28.4 56.7 42.6 96.6 42.6 39.6 0 72-14.5 97.5-43.5s38.2-63.7 38.2-104c0-40.6-13-75-38.8-103.1a127.2 127.2 0 00-97.7-42.2c-39 0-70.8 13.8-95.6 41.5-24.7 27.6-37 62-37 103.3zM1633.4 53.8V245c0 29.7 1.5 50.2 4.5 61.5 3 11.4 10.6 21 22.7 29 12 8 27.6 12 46.7 12 22.7 0 40-3.5 52.2-10.4a50 50 0 0024-27.7c4-11.6 6-32.2 6-61.7V53.8h-44.3V6h149.4v47.8h-47.8v199.7c0 27-1.1 46.5-3.4 58.6a92.8 92.8 0 01-18.6 38.2 104 104 0 01-42.5 31.9 167 167 0 01-66.8 12c-29 0-53-3.8-72.2-11.2a98.1 98.1 0 01-43.4-29.8 100.7 100.7 0 01-19.4-39.8 324 324 0 01-4.8-65.7V53.8h-47.2V6h150.2v47.8h-45.3zM1963.8 340.3V53.8h-49.5V6h317.5v115.1h-47.2V53.8h-163.2v113.7h142v47.8h-142v125h163.2v-69.5h47.2v117.3h-317.5v-47.8h49.4z" fill-rule="nonzero"/><path d="M1467.8 268.2a177.4 177.4 0 01-302.3 0h302.3z"/><circle cx="1210.7" cy="238.2" r="14"/><circle cx="1204.1" cy="190.3" r="14"/><circle cx="1216.9" cy="144.8" r="14"/><circle cx="1418.5" cy="235.7" r="14" fill="#d62330"/><circle cx="1424.9" cy="189.9" r="14" fill="#d62330"/><circle cx="1412.9" cy="144.5" r="14"/><circle cx="1382.3" cy="106.8" r="14"/><circle cx="1340.3" cy="87" r="14"/><circle cx="1290.3" cy="87" r="14"/><circle cx="1246.3" cy="106.9" r="14"/><path d="M1316 196.2l119.2 119" fill="none" stroke="#d62330" stroke-width="43.8"/><circle cx="1316.5" cy="196.4" r="16.6"/></svg>