<svg viewBox="0 0 715 148" xmlns="http://www.w3.org/2000/svg" fill-rule="evenodd" clip-rule="evenodd" stroke-linecap="round" stroke-linejoin="round" stroke-miterlimit="1.5"><path d="M40.4 108.9V17.3H15.2v31.1H0V2h99v46.4H83.9V17.3H58.7v91.6h16v15.3h-50v-15.3h15.7zM106.5 62.4A60.3 60.3 0 01169 0a60.6 60.6 0 0163.7 62.8c0 18.5-6 33.6-18 45.5-12 12-27.4 18-45.9 18a65.1 65.1 0 01-32.6-8.5A55 55 0 01113.8 94a71.6 71.6 0 01-7.4-31.6zm20.1.2c0 13.3 3.8 24.7 11.7 33.7 8 9.2 18.2 13.7 31 13.7 12.6 0 23-4.7 31.1-13.9a48.5 48.5 0 0012.3-33.3 47 47 0 00-12.5-33.1A40.7 40.7 0 00169 16.2a38.8 38.8 0 00-30.4 13.3 47.6 47.6 0 00-11.9 33.1zM260 108.9V17.3h-16.8V2H293c10.2 0 18.5.7 24.6 2.3 6.2 1.6 11.2 5 15.2 10.3 4 5.2 6 11.7 6 19.4 0 16-8.6 26.3-25.3 30.4L335 109h15v15.3h-26.5l-28-57h-17.2v41.7H294v15.3h-50.8v-15.3H260zm18.3-57H293c6.8 0 12-.6 15.3-1.5 3.4-1 6.1-2.7 8-5.6 2.2-2.7 3.3-6.5 3.3-11.1 0-4-1-7.4-3.2-10.1a13.8 13.8 0 00-8-5.2c-3-.8-7.9-1.1-14.3-1.1h-15.7v34.5zM429.1 125.5l3.6 1.6c9.6 4 17 6 22.2 6 1.6 0 3.8-.4 6.3-1l-6.5 15.1a22 22 0 01-4.7.6c-6 0-13.8-2.6-24-7.4a51.5 51.5 0 00-20.8-6.5c-5.2 0-9.4 1.6-12.6 4.5l-5.2-7.5a26 26 0 0113.7-7.4c-10-3-18.2-8.1-25-15a58.5 58.5 0 01-14.5-22.3c-2.7-8-4-15.8-4-23.6a63 63 0 0117.2-44.2A59.3 59.3 0 01420.3 0c19.1 0 34.4 6 46.1 17.8a61.8 61.8 0 0117.6 45c0 9.7-1.8 18.7-5.5 27.6a58.6 58.6 0 01-19 23.4c-9 6.8-19 10.8-30.4 11.7zm-51.3-62.9c0 13.3 3.8 24.7 11.7 33.7 8 9.2 18.2 13.7 31 13.7 12.6 0 23-4.7 31.1-13.9A48.5 48.5 0 00464 62.8a47 47 0 00-12.4-33.1A40.7 40.7 0 00420 16.2a38.8 38.8 0 00-30.4 13.3 47.6 47.6 0 00-11.9 33.1zM522.7 17.3v61.2c0 9.3.4 16 1.5 19.6a16 16 0 007.2 9.2c4 2.7 8.8 4 15 4 7.1 0 12.7-1.2 16.7-3.5a16 16 0 007.7-8.8 71.2 71.2 0 001.8-19.8v-62h-14.2V2h47.9v15.3H591v63.9c0 8.6-.4 14.7-1.1 18.7-.7 4-2.7 8-6 12.2a35.6 35.6 0 01-13.6 10.3c-5.8 2.5-13 3.8-21.3 3.8-9.3 0-17-1.3-23.2-3.6a31.2 31.2 0 01-13.9-9.6 31 31 0 01-6-12.8c-1.2-4.5-1.7-11.5-1.7-21v-62h-15.1V2h48v15.3h-14.4zM628.4 108.9V17.3h-15.9V2h101.7v36.7h-15.1V17.3h-52.2v36.3h45.4V69h-45.4v40h52.2V86.7h15.1v37.5H612.5v-15.3h15.9z" fill-rule="nonzero"/><g><path d="M469.7 85.8a56.8 56.8 0 01-96.8 0h96.8z"/></g><g><circle cx="136.8" cy="335" r="4.4" transform="matrix(1.02066 0 0 1.02066 248.7 -265.7)"/><circle cx="136.8" cy="335" r="4.4" transform="matrix(1.02066 0 0 1.02066 245.7 -281)"/><circle cx="136.8" cy="335" r="4.4" transform="matrix(1.02066 0 0 1.02066 249.7 -295.6)"/><circle cx="136.8" cy="335" r="4.4" fill="#ff3c4a" transform="matrix(1.02066 0 0 1.02066 312.2 -265.5)"/><circle cx="136.8" cy="335" r="4.4" fill="#ff3c4a" transform="matrix(1.02066 0 0 1.02066 316.3 -281.2)"/><circle cx="136.8" cy="335" r="4.4" transform="matrix(1.02066 0 0 1.02066 312.5 -295.7)"/><circle cx="136.8" cy="335" r="4.4" transform="matrix(1.02066 0 0 1.02066 302.7 -307.8)"/><circle cx="136.8" cy="335" r="4.4" transform="matrix(1.02066 0 0 1.02066 289.2 -314.1)"/><circle cx="136.8" cy="335" r="4.4" transform="matrix(1.02066 0 0 1.02066 273.2 -314)"/><circle cx="136.8" cy="335" r="4.4" transform="matrix(1.02066 0 0 1.02066 259.1 -307.7)"/></g><g><path d="M421.1 62.8l38.1 38" fill="none" stroke="#ff3c4a" stroke-width="14"/></g><g transform="translate(255 -344.1) scale(1.21471)"><circle cx="136.8" cy="335" r="4.4"/></g></svg>