<svg viewBox="0 0 127 148" xmlns="http://www.w3.org/2000/svg" fill-rule="evenodd" clip-rule="evenodd" stroke-linecap="round" stroke-linejoin="round" stroke-miterlimit="1.5"><path d="M71.5 125.5l3.6 1.6a64 64 0 0022.1 5.9c1.6 0 3.8-.3 6.4-.8l-6.5 15.1c-1.7.3-3.3.4-4.8.4-5.8 0-13.8-2.4-24-7.4a52.3 52.3 0 00-20.8-6.3c-5.2 0-9.4 1.4-12.5 4.3l-5.2-7.4c3.5-3.8 8-6.2 13.5-7.4A60 60 0 014 86.3c-2.7-8-4-15.9-4-23.7 0-17.3 5.7-32 17.1-44.3A59.5 59.5 0 0162.8 0c19 0 34.3 6 46 17.8a61.5 61.5 0 0117.6 45c0 9.7-1.9 18.8-5.6 27.5a58.9 58.9 0 01-19 23.4c-8.9 7-19 10.9-30.3 11.8zM101 85.8c3.5-6.9 5.3-14.6 5.3-23 0-13-4.2-24-12.5-33a40.7 40.7 0 00-31.2-13.5A39.2 39.2 0 0032 29.5a47.8 47.8 0 00-11.9 33c0 8.7 1.7 16.5 5 23.3H101z" fill-rule="nonzero"/><circle cx="136.8" cy="335" r="4.4" transform="matrix(1.02066 0 0 1.02066 -109 -265.7)"/><circle cx="136.8" cy="335" r="4.4" transform="matrix(1.02066 0 0 1.02066 -112 -281)"/><circle cx="136.8" cy="335" r="4.4" transform="matrix(1.02066 0 0 1.02066 -108 -295.6)"/><circle cx="136.8" cy="335" r="4.4" fill="#ff3c4a" transform="matrix(1.02066 0 0 1.02066 -45.4 -265.5)"/><circle cx="136.8" cy="335" r="4.4" fill="#ff3c4a" transform="matrix(1.02066 0 0 1.02066 -41.4 -281.2)"/><circle cx="136.8" cy="335" r="4.4" transform="matrix(1.02066 0 0 1.02066 -45.2 -295.7)"/><circle cx="136.8" cy="335" r="4.4" transform="matrix(1.02066 0 0 1.02066 -55 -307.8)"/><circle cx="136.8" cy="335" r="4.4" transform="matrix(1.02066 0 0 1.02066 -68.4 -314.1)"/><circle cx="136.8" cy="335" r="4.4" transform="matrix(1.02066 0 0 1.02066 -84.4 -314)"/><circle cx="136.8" cy="335" r="4.4" transform="matrix(1.02066 0 0 1.02066 -98.5 -307.7)"/><g><path d="M63.5 62.8l38 38" fill="none" stroke="#ff3c4a" stroke-width="14"/></g><g transform="translate(-102.6 -344.1) scale(1.21471)"><circle cx="136.8" cy="335" r="4.4"/></g></svg>