<?xml version="1.0" encoding="UTF-8" standalone="no"?><!DOCTYPE svg PUBLIC "-//W3C//DTD SVG 1.1//EN" "http://www.w3.org/Graphics/SVG/1.1/DTD/svg11.dtd"><svg width="100%" height="100%" viewBox="0 0 395 462" version="1.1" xmlns="http://www.w3.org/2000/svg" xmlns:xlink="http://www.w3.org/1999/xlink" xml:space="preserve" xmlns:serif="http://www.serif.com/" style="fill-rule:evenodd;clip-rule:evenodd;stroke-linecap:round;stroke-linejoin:round;stroke-miterlimit:1.5;"><path d="M223.572,392.212l11.261,4.944c29.846,12.268 52.826,18.402 68.939,18.402c5.127,-0 11.81,-0.824 20.05,-2.472l-20.325,47.241c-5.493,0.916 -10.528,1.373 -15.106,1.373c-18.127,0 -43.121,-7.713 -74.982,-23.14c-27.465,-13.22 -49.072,-19.831 -64.819,-19.831c-16.296,0 -29.388,4.528 -39.276,13.583l-16.205,-23.346c10.803,-11.719 24.902,-19.409 42.297,-23.071c-30.761,-9.705 -56.808,-25.315 -78.14,-46.829c-21.332,-21.515 -36.209,-44.678 -44.632,-69.489c-8.423,-24.811 -12.634,-49.484 -12.634,-74.02c-0,-54.016 17.853,-100.113 53.558,-138.291c35.706,-38.177 83.222,-57.266 142.548,-57.266c59.326,-0 107.3,18.585 143.921,55.756c36.621,37.17 54.931,84.045 54.931,140.625c0,30.029 -5.767,58.639 -17.303,85.83c-11.536,27.191 -31.311,51.59 -59.326,73.197c-28.015,21.606 -59.601,33.874 -94.757,36.804Zm92.013,-124.005c10.985,-21.607 16.477,-45.639 16.477,-72.101c-0,-40.649 -12.955,-75.028 -38.864,-103.134c-25.91,-28.107 -58.457,-42.16 -97.641,-42.16c-39.002,-0 -70.862,13.824 -95.581,41.473c-24.72,27.649 -37.079,62.073 -37.079,103.272c-0,27.033 5.099,51.25 15.297,72.65l237.391,0Z" style="fill-rule:nonzero;"/><g><circle cx="89.861" cy="238.16" r="13.954"/><circle cx="86.477" cy="190.317" r="13.954"/><circle cx="99.199" cy="144.84" r="13.954"/><circle cx="300.808" cy="238.79" r="13.954" style="fill:#d62330;"/><circle cx="307.195" cy="189.933" r="13.954" style="fill:#d62330;"/><circle cx="295.224" cy="144.549" r="13.954"/><circle cx="264.669" cy="106.827" r="13.954"/><circle cx="222.587" cy="86.987" r="13.954"/><circle cx="172.672" cy="87.044" r="13.954"/><circle cx="128.628" cy="106.912" r="13.954"/></g><path d="M198.327,196.208l119.084,119.084" style="fill:none;stroke:#d62330;stroke-width:43.75px;"/><circle cx="198.893" cy="196.415" r="16.607"/></svg>